<?xml version="1.0" standalone="no"?><!DOCTYPE svg PUBLIC "-//W3C//DTD SVG 1.1//EN" "http://www.w3.org/Graphics/SVG/1.1/DTD/svg11.dtd"><svg t="1548209304152" class="icon" style="" viewBox="0 0 1024 1024" version="1.1" xmlns="http://www.w3.org/2000/svg" p-id="2873" xmlns:xlink="http://www.w3.org/1999/xlink" width="64" height="64"><defs><style type="text/css"></style></defs><path d="M617.929517 735.102771v-64.220495H406.070483v64.220495a52.966759 52.966759 0 0 1-38.019109 50.812809l-158.454286 46.604908c-30.055296 8.839793-50.692812 36.423146-50.692812 67.750412v88.397928c0 19.501543 15.80763 35.309172 35.309172 35.309173h635.571104c19.501543 0 35.309172-15.80763 35.309172-35.309173v-88.397928c0-31.325266-20.637516-58.908619-50.692812-67.750412l-158.454286-46.604908a52.964759 52.964759 0 0 1-38.017109-50.812809z" fill="#E6AF78" p-id="2874"></path><path d="M355.197675 796.763326c209.767084 33.009226 262.731842-108.227463 262.731842-108.227464v-17.655586H406.070483v64.220495a52.966759 52.966759 0 0 1-38.019109 50.812809l-21.565495 6.341852 8.711796 4.507894z" fill="#D29B6E" p-id="2875"></path><path d="M814.404912 832.518488s-119.259205-35.525167-154.338382-46.124919a17.613587 17.613587 0 0 1-11.993719-12.603705l-7.863816-31.447263c-2.493942-9.977766-12.953696-15.719632-22.711468-12.465707l-67.674413 22.557471a35.305173 35.305173 0 0 0-23.661446 27.691351l-11.021742 66.12645c-0.591986 3.545917-5.687867 3.545917-6.277852 0l-11.021742-66.12445a35.313172 35.313172 0 0 0-23.663446-27.693351l-67.672413-22.557471c-9.755771-3.251924-20.217526 2.489942-22.711468 12.465707l-7.863816 31.447263a17.625587 17.625587 0 0 1-11.993719 12.603705c-35.077178 10.601752-154.338383 46.124919-154.338382 46.124919-30.055296 8.839793-50.692812 36.421146-50.692812 67.750412v88.397928c0 19.501543 15.80763 35.309172 35.309172 35.309173h635.571104c19.501543 0 35.309172-15.80763 35.309172-35.309173v-88.399928c0.002-31.325266-20.635516-58.906619-50.688812-67.748412z" fill="#FF4B4B" p-id="2876"></path><path d="M353.107724 150.064483a158.892276 150.064483 0 1 0 317.784552 0 158.892276 150.064483 0 1 0-317.784552 0Z" fill="#625D6B" p-id="2877"></path><path d="M335.452138 203.029242a176.547862 114.75531 0 1 0 353.095724 0 176.547862 114.75531 0 1 0-353.095724 0Z" fill="#FFCF65" p-id="2878"></path><path d="M776.821793 379.577104c0 131.630915-157.566307 291.303173-264.821793 291.303172S247.178207 511.208019 247.178207 379.577104 394.994742 141.23869 512 141.23869s264.821793 106.707499 264.821793 238.338414z" fill="#504B5A" p-id="2879"></path><path d="M714.291259 457.671273c-90.211886-8.215807-164.418146-56.602673-191.385515-121.293157-3.987907-9.565776-17.821582-9.565776-21.809488 0-26.967368 64.688484-101.175629 113.07735-191.385515 121.293157-27.219362 1.351968-30.885276 22.20348-26.257384 40.707046l17.279595 69.11838a18.397569 18.397569 0 0 0 17.843581 13.933674c2.263947 0 4.433896-0.43999 6.449849-1.195972l3.885909 27.203362a88.271931 88.271931 0 0 0 47.908877 66.472442l95.701757 47.850879a88.285931 88.285931 0 0 0 78.95415 0l95.701757-47.850879a88.273931 88.273931 0 0 0 47.908877-66.470442l3.885909-27.205362a18.33557 18.33557 0 0 0 6.449849 1.195972c8.441802 0 15.79963-5.743865 17.843581-13.933674l17.279595-69.11838c4.627892-18.503566 0.965977-39.355078-26.255384-40.707046z" fill="#F0C087" p-id="2880"></path><path d="M526.295665 343.595947c-1.151973-2.397944-2.369944-4.773888-3.389921-7.217831-3.987907-9.565776-17.821582-9.565776-21.809488 0-26.967368 64.688484-101.175629 113.07735-191.385515 121.293157-27.221362 1.351968-30.887276 22.20348-26.259384 40.707046l17.279595 69.11838a18.397569 18.397569 0 0 0 17.843581 13.933674c2.263947 0 4.433896-0.43999 6.449849-1.195972l3.885909 27.203362a88.277931 88.277931 0 0 0 47.910877 66.472442l95.699757 47.850879a88.245932 88.245932 0 0 0 29.427311 8.741795c-20.395522-13.987672-50.744811-43.186988-72.214308-101.317626-5.175879-14.011672-13.797677-65.816457-19.937533-117.951235-1.401967-11.897721 3.161926-23.699445 12.411709-31.317266 42.461005-34.97318 91.109865-84.598017 104.087561-136.320805z" fill="#E6AF78" p-id="2881"></path><path d="M512 865.083725c67.39442 0 124.845074-32.687234 147.944533-78.746155a17.619587 17.619587 0 0 1-11.875722-12.547706l-7.863816-31.449263c-2.493942-9.977766-12.953696-15.719632-22.711468-12.465707l-67.674413 22.557471a35.303173 35.303173 0 0 0-23.663446 27.691351l-11.021741 66.12445c-0.591986 3.545917-5.687867 3.545917-6.277853 0l-11.021742-66.12445a35.307172 35.307172 0 0 0-23.663445-27.691351l-67.672414-22.557471c-9.755771-3.251924-20.217526 2.489942-22.711468 12.465707l-7.863816 31.449263a17.609587 17.609587 0 0 1-11.875721 12.547706c23.107458 46.056921 80.560112 78.746154 147.952532 78.746155zM266.975743 937.846019l-87.391952-87.391952c-12.885698 12.929697-20.677515 30.643282-20.677515 49.814833v88.397928c0 19.501543 15.80763 35.309172 35.309172 35.309173h88.273931v-48.680859a52.964759 52.964759 0 0 0-15.513636-37.449123zM757.026257 937.846019l87.391952-87.391952c12.885698 12.929697 20.677515 30.643282 20.677515 49.814833v88.397928c0 19.501543-15.80763 35.309172-35.309172 35.309173h-88.273931v-48.680859c0-14.045671 5.579869-27.517355 15.513636-37.449123z" fill="#C83741" p-id="2882"></path><path d="M693.931736 796.563331a16049.589838 16049.589838 0 0 1-33.869206-10.169762c-0.043999-0.014-0.077998-0.041999-0.121997-0.055999-23.095459 46.056921-80.548112 78.744154-147.942533 78.744155s-124.845074-32.687234-147.944533-78.746155c-0.043999 0.014-0.077998 0.041999-0.121997 0.055999-7.819817 2.363945-19.937533 5.997859-33.869206 10.169762 27.459356 60.514582 98.537691 103.831566 181.933736 103.831566 26.951368 0 52.580768-4.583893 75.904221-12.749701-65.408467 68.570393-158.800278 125.559057-253.698054 136.332805h124.977071c102.285603-47.37889 187.913596-132.944884 228.366648-215.096959 2.319946-4.021906 4.481895-8.11781 6.38585-12.315711z" fill="#FFCF65" p-id="2883"></path></svg>