<?xml version="1.0" standalone="no"?><!DOCTYPE svg PUBLIC "-//W3C//DTD SVG 1.1//EN" "http://www.w3.org/Graphics/SVG/1.1/DTD/svg11.dtd"><svg t="1548209292901" class="icon" style="" viewBox="0 0 1024 1024" version="1.1" xmlns="http://www.w3.org/2000/svg" p-id="2591" xmlns:xlink="http://www.w3.org/1999/xlink" width="64" height="64"><defs><style type="text/css"></style></defs><path d="M670.889373 723.877184v-123.579512H353.112627v123.579512l158.887373 141.233443z" fill="#E6AF78" p-id="2592"></path><path d="M353.112627 600.297672v130.387485c200.15321 72.113715 317.774746-108.369572 317.774746-108.369572V600.297672H353.112627z" fill="#D29B6E" p-id="2593"></path><path d="M701.413253 722.39519l-8.245968-32.98587c-2.49399-9.975961-12.953949-15.717938-22.70991-12.465951l-120.099526 40.033842a35.313861 35.313861 0 0 0-23.789906 28.501888L511.998 847.456697l-14.569943-101.977598a35.305861 35.305861 0 0 0-23.789906-28.501888l-120.099526-40.033842c-9.755962-3.251987-20.21592 2.48999-22.70991 12.465951l-8.245968 32.98587a17.65393 17.65393 0 0 1-13.155948 12.919949l-201.699204 46.545816c-32.039874 7.393971-54.739784 35.925858-54.739784 68.809729v138.019455c0 19.501923 15.807938 35.307861 35.307861 35.307861H935.696328c19.501923 0 35.307861-15.807938 35.307861-35.307861v-138.019455c0-32.88387-22.69591-61.413758-54.739784-68.809729l-201.699204-46.543816a17.65393 17.65393 0 0 1-13.151948-12.921949z" fill="#FF4B4B" p-id="2594"></path><path d="M710.021219 733.575146a17.63793 17.63793 0 0 1-8.607966-11.179956l-8.245968-32.98587c-2.49399-9.975961-12.953949-15.717938-22.70991-12.465951l-120.099526 40.033842a35.305861 35.305861 0 0 0-23.785906 28.501888l-14.569943 101.977598c84.531666-0.002 158.197376-45.835819 198.019219-113.881551zM512 847.454697l-14.569943-101.977598a35.305861 35.305861 0 0 0-23.785906-28.501888l-120.099526-40.033842c-9.755962-3.251987-20.21592 2.48999-22.70991 12.465951l-8.245968 32.98587a17.65993 17.65993 0 0 1-8.607966 11.179956c39.821843 68.047732 113.485552 113.881551 198.019219 113.881551z" fill="#C83741" p-id="2595"></path><path d="M282.494905 194.249274l15.38394 338.454664a105.919582 105.919582 0 0 0 42.261833 79.929685l72.995712 54.747784a105.937582 105.937582 0 0 0 63.555749 21.185916h70.615722c22.91991 0 45.219822-7.433971 63.555749-21.185916l72.995712-54.747784a105.933582 105.933582 0 0 0 42.261833-79.929685l15.38394-338.454664H282.494905z" fill="#F0C087" p-id="2596"></path><path d="M459.038209 264.868995c70.615721 0 176.541303-17.65393 201.665204-70.615721H282.494905l15.38394 338.454664a105.923582 105.923582 0 0 0 42.261833 79.929685l72.995712 54.747784a105.937582 105.937582 0 0 0 63.555749 21.185916h35.307861c-35.307861 0-105.925582-70.615721-105.925582-158.887373V317.834786c0-17.65793 17.65393-52.965791 52.963791-52.965791z" fill="#E6AF78" p-id="2597"></path><path d="M688.633303 67.443774C663.047404 33.963906 608.019621-1.577954 512.002 0.05404c-55.211782 0.937996-158.887373 17.65393-212.585161 45.60782l26.111897 17.837929c-118.061534 87.167656-95.993621 236.675066-95.993622 236.675067 35.307861 35.307861 35.307861 123.579512 35.307861 123.579512l35.307861-35.307861s-13.625946-101.995598 52.961791-141.233442c61.789756-36.411856 115.855543-17.65393 171.025325-17.653931 62.387754 0 105.817583-9.921961 134.641469-26.487895 54.683784 32.003874 63.41575 128.679492 64.807744 158.717374 0.283999 6.145976 2.245991 12.079952 5.579978 17.249932l28.825886 44.715823s-9.865961-73.927708 35.307861-123.579512c0 0.002 11.373955-215.37115-104.667587-232.731082z" fill="#625D6B" p-id="2598"></path><path d="M289.116879 214.111195s-18.757926-73.927708 36.411857-150.611406c-118.061534 87.167656-95.993621 236.675066-95.993622 236.675067 35.307861 35.307861 35.307861 123.579512 35.307861 123.579512l35.307861-35.307861s-13.625946-101.995598 52.961791-141.233442c61.789756-36.411856 115.855543-17.65393 171.025325-17.653931 24.045905 0 44.999822-1.609994 63.663749-4.369982-113.869551 3.817985-180.989286-82.429675-298.684822-11.077957z" fill="#504B5A" p-id="2599"></path><path d="M248.29704 416.200398l19.937922 79.747685a21.219916 21.219916 0 0 0 20.591918 16.075937c10.705958 0 19.733922-7.969969 21.061917-18.591927l10.19596-81.563678c2.725989-21.811914-14.279944-41.075838-36.261857-41.075838h-0.068c-23.779906 0-41.223837 22.341912-35.45786 45.407821z" fill="#E6AF78" p-id="2600"></path><path d="M971.010189 988.688139v-138.019455c0-16.419935-5.661978-31.753875-15.319939-43.909827l-114.28555 102.663595a88.265652 88.265652 0 0 0-29.283884 65.667741V1023.996h123.579512c19.499923 0.002 35.309861-15.807938 35.309861-35.307861zM182.5973 909.422452l-112.545556-104.529588c-10.643958 12.451951-17.059933 28.457888-17.059933 45.77982v138.019455c0 19.499923 15.809938 35.307861 35.307861 35.307861h123.579512v-48.907807a88.261652 88.261652 0 0 0-29.281884-65.669741z" fill="#C83741" p-id="2601"></path><path d="M547.307861 865.110627h-70.615722a17.65393 17.65393 0 0 1 0-35.307861h70.615722a17.65393 17.65393 0 0 1 0 35.307861zM547.307861 953.380279h-70.615722a17.65393 17.65393 0 0 1 0-35.307861h70.615722a17.65393 17.65393 0 0 1 17.65393 17.65393 17.65193 17.65193 0 0 1-17.65393 17.653931z" fill="#FFCF65" p-id="2602"></path><path d="M775.70496 416.200398l-19.937922 79.747685a21.225916 21.225916 0 0 1-41.653835-2.51599l-10.19596-81.563678c-2.727989-21.811914 14.279944-41.075838 36.261857-41.075838h0.067999c23.777906 0 41.223837 22.341912 35.457861 45.407821z" fill="#F0C087" p-id="2603"></path></svg>